<mxfile modified="2021-09-20T11:11:31.007Z" host="app.diagrams.net" agent="5.0 (Windows NT 10.0; Win64; x64) AppleWebKit/537.36 (KHTML, like Gecko) Chrome/93.0.4577.82 Safari/537.36" etag="9L-jKTilujrKapQkmAqi" version="14.1.8" type="github">
  <diagram id="Ht1M8jgEwFfnCIfOTk4-" name="Page-1">
    <mxGraphModel dx="1422" dy="1621" grid="1" gridSize="10" guides="1" tooltips="1" connect="1" arrows="1" fold="1" page="1" pageScale="1" pageWidth="1169" pageHeight="827" math="0" shadow="0">
      <root>
        <mxCell id="0" />
        <mxCell id="1" parent="0" />
        <mxCell id="UEzPUAAOIrF-is8g5C7q-175" value="Infrastructure Production" style="points=[[0,0],[0.25,0],[0.5,0],[0.75,0],[1,0],[1,0.25],[1,0.5],[1,0.75],[1,1],[0.75,1],[0.5,1],[0.25,1],[0,1],[0,0.75],[0,0.5],[0,0.25]];outlineConnect=0;gradientColor=none;html=1;whiteSpace=wrap;fontSize=12;fontStyle=0;shape=mxgraph.aws4.group;grIcon=mxgraph.aws4.group_aws_cloud_alt;strokeColor=#232F3E;fillColor=white;verticalAlign=top;align=left;spacingLeft=30;fontColor=#232F3E;dashed=0;labelBackgroundColor=#ffffff;" parent="1" vertex="1">
          <mxGeometry x="30" y="-810" width="1040" height="570" as="geometry" />
        </mxCell>
        <mxCell id="HDqoteHdZ3KNMryvcVHf-9" value="VPC" style="outlineConnect=0;gradientColor=none;html=1;whiteSpace=wrap;fontSize=12;fontStyle=1;shape=mxgraph.aws4.group;grIcon=mxgraph.aws4.group_vpc;strokeColor=#879196;fillColor=none;verticalAlign=top;align=left;spacingLeft=30;fontColor=#879196;dashed=0;" vertex="1" parent="1">
          <mxGeometry x="40" y="-770" width="1020" height="500" as="geometry" />
        </mxCell>
        <mxCell id="HDqoteHdZ3KNMryvcVHf-13" value="EC2 Subnet" style="outlineConnect=0;gradientColor=none;html=1;whiteSpace=wrap;fontSize=12;fontStyle=0;shape=mxgraph.aws4.group;grIcon=mxgraph.aws4.group_subnet;strokeColor=#879196;fillColor=none;verticalAlign=top;align=left;spacingLeft=30;fontColor=#879196;dashed=0;" vertex="1" parent="1">
          <mxGeometry x="70" y="-740" width="310" height="450" as="geometry" />
        </mxCell>
        <mxCell id="HDqoteHdZ3KNMryvcVHf-44" style="edgeStyle=orthogonalEdgeStyle;rounded=0;orthogonalLoop=1;jettySize=auto;html=1;" edge="1" parent="1" source="HDqoteHdZ3KNMryvcVHf-10">
          <mxGeometry relative="1" as="geometry">
            <mxPoint x="290" y="-390" as="targetPoint" />
            <Array as="points">
              <mxPoint x="250" y="-460" />
              <mxPoint x="250" y="-390" />
            </Array>
          </mxGeometry>
        </mxCell>
        <mxCell id="HDqoteHdZ3KNMryvcVHf-45" style="edgeStyle=orthogonalEdgeStyle;rounded=0;orthogonalLoop=1;jettySize=auto;html=1;" edge="1" parent="1" source="HDqoteHdZ3KNMryvcVHf-10" target="HDqoteHdZ3KNMryvcVHf-30">
          <mxGeometry relative="1" as="geometry" />
        </mxCell>
        <mxCell id="HDqoteHdZ3KNMryvcVHf-46" style="edgeStyle=orthogonalEdgeStyle;rounded=0;orthogonalLoop=1;jettySize=auto;html=1;" edge="1" parent="1" source="HDqoteHdZ3KNMryvcVHf-10" target="HDqoteHdZ3KNMryvcVHf-31">
          <mxGeometry relative="1" as="geometry" />
        </mxCell>
        <mxCell id="HDqoteHdZ3KNMryvcVHf-47" style="edgeStyle=orthogonalEdgeStyle;rounded=0;orthogonalLoop=1;jettySize=auto;html=1;" edge="1" parent="1" source="HDqoteHdZ3KNMryvcVHf-10" target="HDqoteHdZ3KNMryvcVHf-32">
          <mxGeometry relative="1" as="geometry">
            <Array as="points">
              <mxPoint x="330" y="-460" />
            </Array>
          </mxGeometry>
        </mxCell>
        <mxCell id="HDqoteHdZ3KNMryvcVHf-48" style="edgeStyle=orthogonalEdgeStyle;rounded=0;orthogonalLoop=1;jettySize=auto;html=1;" edge="1" parent="1" source="HDqoteHdZ3KNMryvcVHf-10" target="HDqoteHdZ3KNMryvcVHf-25">
          <mxGeometry relative="1" as="geometry">
            <Array as="points">
              <mxPoint x="180" y="-460" />
              <mxPoint x="180" y="-670" />
            </Array>
          </mxGeometry>
        </mxCell>
        <mxCell id="HDqoteHdZ3KNMryvcVHf-50" style="edgeStyle=orthogonalEdgeStyle;rounded=0;orthogonalLoop=1;jettySize=auto;html=1;" edge="1" parent="1" source="HDqoteHdZ3KNMryvcVHf-10" target="HDqoteHdZ3KNMryvcVHf-28">
          <mxGeometry relative="1" as="geometry">
            <Array as="points">
              <mxPoint x="120" y="-320" />
            </Array>
          </mxGeometry>
        </mxCell>
        <mxCell id="HDqoteHdZ3KNMryvcVHf-10" value="aw1v-ntppr01" style="outlineConnect=0;fontColor=#232F3E;gradientColor=none;strokeColor=#ffffff;fillColor=#232F3E;dashed=0;verticalLabelPosition=middle;verticalAlign=bottom;align=center;html=1;whiteSpace=wrap;fontSize=10;fontStyle=1;spacing=3;shape=mxgraph.aws4.productIcon;prIcon=mxgraph.aws4.ec2;" vertex="1" parent="1">
          <mxGeometry x="80" y="-510" width="80" height="100" as="geometry" />
        </mxCell>
        <mxCell id="HDqoteHdZ3KNMryvcVHf-11" value="" style="shape=image;html=1;verticalAlign=top;verticalLabelPosition=bottom;labelBackgroundColor=#ffffff;imageAspect=0;aspect=fixed;image=https://cdn4.iconfinder.com/data/icons/48x48-free-time-icons/48/Circulation.png" vertex="1" parent="1">
          <mxGeometry x="80" y="-680" width="80" height="80" as="geometry" />
        </mxCell>
        <mxCell id="HDqoteHdZ3KNMryvcVHf-24" value="" style="image;html=1;image=img/lib/clip_art/finance/Arrow_Down_128x128.png" vertex="1" parent="1">
          <mxGeometry x="100" y="-590" width="40" height="80" as="geometry" />
        </mxCell>
        <mxCell id="HDqoteHdZ3KNMryvcVHf-25" value="Linux EC2" style="outlineConnect=0;fontColor=#232F3E;gradientColor=none;strokeColor=#ffffff;fillColor=#232F3E;dashed=0;verticalLabelPosition=middle;verticalAlign=bottom;align=center;html=1;whiteSpace=wrap;fontSize=10;fontStyle=1;spacing=3;shape=mxgraph.aws4.productIcon;prIcon=mxgraph.aws4.ec2;" vertex="1" parent="1">
          <mxGeometry x="290" y="-720" width="80" height="100" as="geometry" />
        </mxCell>
        <mxCell id="HDqoteHdZ3KNMryvcVHf-27" value="Windows EC2" style="outlineConnect=0;fontColor=#232F3E;gradientColor=none;strokeColor=#ffffff;fillColor=#232F3E;dashed=0;verticalLabelPosition=middle;verticalAlign=bottom;align=center;html=1;whiteSpace=wrap;fontSize=10;fontStyle=1;spacing=3;shape=mxgraph.aws4.productIcon;prIcon=mxgraph.aws4.ec2;" vertex="1" parent="1">
          <mxGeometry x="290" y="-450" width="80" height="100" as="geometry" />
        </mxCell>
        <mxCell id="HDqoteHdZ3KNMryvcVHf-49" style="edgeStyle=orthogonalEdgeStyle;rounded=0;orthogonalLoop=1;jettySize=auto;html=1;" edge="1" parent="1" source="HDqoteHdZ3KNMryvcVHf-28" target="HDqoteHdZ3KNMryvcVHf-30">
          <mxGeometry relative="1" as="geometry" />
        </mxCell>
        <mxCell id="HDqoteHdZ3KNMryvcVHf-28" value="Lambda Subnet" style="outlineConnect=0;gradientColor=none;html=1;whiteSpace=wrap;fontSize=12;fontStyle=0;shape=mxgraph.aws4.group;grIcon=mxgraph.aws4.group_subnet;strokeColor=#879196;fillColor=none;verticalAlign=top;align=left;spacingLeft=30;fontColor=#879196;dashed=0;" vertex="1" parent="1">
          <mxGeometry x="400" y="-740" width="290" height="450" as="geometry" />
        </mxCell>
        <mxCell id="HDqoteHdZ3KNMryvcVHf-30" value="RDS Subnet" style="outlineConnect=0;gradientColor=none;html=1;whiteSpace=wrap;fontSize=12;fontStyle=0;shape=mxgraph.aws4.group;grIcon=mxgraph.aws4.group_subnet;strokeColor=#879196;fillColor=none;verticalAlign=top;align=left;spacingLeft=30;fontColor=#879196;dashed=0;" vertex="1" parent="1">
          <mxGeometry x="710" y="-740" width="310" height="450" as="geometry" />
        </mxCell>
        <mxCell id="HDqoteHdZ3KNMryvcVHf-31" value="AW1V-DCPR02" style="outlineConnect=0;fontColor=#232F3E;gradientColor=none;strokeColor=#ffffff;fillColor=#232F3E;dashed=0;verticalLabelPosition=middle;verticalAlign=bottom;align=center;html=1;whiteSpace=wrap;fontSize=10;fontStyle=1;spacing=3;shape=mxgraph.aws4.productIcon;prIcon=mxgraph.aws4.ec2;" vertex="1" parent="1">
          <mxGeometry x="200" y="-610" width="80" height="100" as="geometry" />
        </mxCell>
        <mxCell id="HDqoteHdZ3KNMryvcVHf-32" value="AW1V-DCPR01" style="outlineConnect=0;fontColor=#232F3E;gradientColor=none;strokeColor=#ffffff;fillColor=#232F3E;dashed=0;verticalLabelPosition=middle;verticalAlign=bottom;align=center;html=1;whiteSpace=wrap;fontSize=10;fontStyle=1;spacing=3;shape=mxgraph.aws4.productIcon;prIcon=mxgraph.aws4.ec2;" vertex="1" parent="1">
          <mxGeometry x="290" y="-610" width="80" height="100" as="geometry" />
        </mxCell>
        <mxCell id="HDqoteHdZ3KNMryvcVHf-35" value="MongoDB" style="outlineConnect=0;fontColor=#232F3E;gradientColor=none;strokeColor=#ffffff;fillColor=#232F3E;dashed=0;verticalLabelPosition=middle;verticalAlign=bottom;align=center;html=1;whiteSpace=wrap;fontSize=10;fontStyle=1;spacing=3;shape=mxgraph.aws4.productIcon;prIcon=mxgraph.aws4.rds;" vertex="1" parent="1">
          <mxGeometry x="910" y="-463" width="80" height="100" as="geometry" />
        </mxCell>
        <mxCell id="HDqoteHdZ3KNMryvcVHf-37" value="MariaDB" style="outlineConnect=0;fontColor=#232F3E;gradientColor=none;strokeColor=#ffffff;fillColor=#232F3E;dashed=0;verticalLabelPosition=middle;verticalAlign=bottom;align=center;html=1;whiteSpace=wrap;fontSize=10;fontStyle=1;spacing=3;shape=mxgraph.aws4.productIcon;prIcon=mxgraph.aws4.rds;" vertex="1" parent="1">
          <mxGeometry x="910" y="-590" width="80" height="100" as="geometry" />
        </mxCell>
        <mxCell id="HDqoteHdZ3KNMryvcVHf-38" value="MariaDB" style="outlineConnect=0;fontColor=#232F3E;gradientColor=none;strokeColor=#ffffff;fillColor=#232F3E;dashed=0;verticalLabelPosition=middle;verticalAlign=bottom;align=center;html=1;whiteSpace=wrap;fontSize=10;fontStyle=1;spacing=3;shape=mxgraph.aws4.productIcon;prIcon=mxgraph.aws4.rds;" vertex="1" parent="1">
          <mxGeometry x="910" y="-710" width="80" height="100" as="geometry" />
        </mxCell>
        <mxCell id="HDqoteHdZ3KNMryvcVHf-39" value="function 1" style="outlineConnect=0;fontColor=#232F3E;gradientColor=none;strokeColor=#ffffff;fillColor=#232F3E;dashed=0;verticalLabelPosition=middle;verticalAlign=bottom;align=center;html=1;whiteSpace=wrap;fontSize=10;fontStyle=1;spacing=3;shape=mxgraph.aws4.productIcon;prIcon=mxgraph.aws4.lambda;" vertex="1" parent="1">
          <mxGeometry x="420" y="-640" width="80" height="100" as="geometry" />
        </mxCell>
        <mxCell id="HDqoteHdZ3KNMryvcVHf-40" value="function 3" style="outlineConnect=0;fontColor=#232F3E;gradientColor=none;strokeColor=#ffffff;fillColor=#232F3E;dashed=0;verticalLabelPosition=middle;verticalAlign=bottom;align=center;html=1;whiteSpace=wrap;fontSize=10;fontStyle=1;spacing=3;shape=mxgraph.aws4.productIcon;prIcon=mxgraph.aws4.lambda;" vertex="1" parent="1">
          <mxGeometry x="500" y="-463" width="80" height="100" as="geometry" />
        </mxCell>
        <mxCell id="HDqoteHdZ3KNMryvcVHf-41" value="function 2" style="outlineConnect=0;fontColor=#232F3E;gradientColor=none;strokeColor=#ffffff;fillColor=#232F3E;dashed=0;verticalLabelPosition=middle;verticalAlign=bottom;align=center;html=1;whiteSpace=wrap;fontSize=10;fontStyle=1;spacing=3;shape=mxgraph.aws4.productIcon;prIcon=mxgraph.aws4.lambda;" vertex="1" parent="1">
          <mxGeometry x="585" y="-640" width="80" height="100" as="geometry" />
        </mxCell>
        <mxCell id="HDqoteHdZ3KNMryvcVHf-42" value="" style="rounded=0;whiteSpace=wrap;html=1;" vertex="1" parent="1">
          <mxGeometry x="30" y="-170" width="910" height="360" as="geometry" />
        </mxCell>
        <mxCell id="HDqoteHdZ3KNMryvcVHf-43" value="" style="shape=image;html=1;verticalAlign=top;verticalLabelPosition=bottom;labelBackgroundColor=#ffffff;imageAspect=0;aspect=fixed;image=https://cdn1.iconfinder.com/data/icons/software-engineering-and-video-gaming/512/508_Center_centre_data_database_server_Hardware_Engineering_Internet-128.png" vertex="1" parent="1">
          <mxGeometry x="40" y="-160" width="70" height="70" as="geometry" />
        </mxCell>
        <mxCell id="HDqoteHdZ3KNMryvcVHf-55" value="Text" style="text;html=1;strokeColor=none;fillColor=none;align=center;verticalAlign=middle;whiteSpace=wrap;rounded=0;" vertex="1" parent="1">
          <mxGeometry x="540" y="-440" width="40" height="20" as="geometry" />
        </mxCell>
        <mxCell id="HDqoteHdZ3KNMryvcVHf-57" value="Time Sync" style="text;html=1;strokeColor=none;fillColor=none;align=center;verticalAlign=middle;whiteSpace=wrap;rounded=0;" vertex="1" parent="1">
          <mxGeometry x="80" y="-710" width="90" height="20" as="geometry" />
        </mxCell>
        <mxCell id="HDqoteHdZ3KNMryvcVHf-63" style="edgeStyle=orthogonalEdgeStyle;rounded=0;orthogonalLoop=1;jettySize=auto;html=1;" edge="1" parent="1" source="HDqoteHdZ3KNMryvcVHf-60" target="HDqoteHdZ3KNMryvcVHf-59">
          <mxGeometry relative="1" as="geometry" />
        </mxCell>
        <mxCell id="HDqoteHdZ3KNMryvcVHf-64" style="edgeStyle=orthogonalEdgeStyle;rounded=0;orthogonalLoop=1;jettySize=auto;html=1;" edge="1" parent="1" source="HDqoteHdZ3KNMryvcVHf-60" target="HDqoteHdZ3KNMryvcVHf-58">
          <mxGeometry relative="1" as="geometry" />
        </mxCell>
        <mxCell id="HDqoteHdZ3KNMryvcVHf-65" value="" style="rounded=0;whiteSpace=wrap;html=1;" vertex="1" parent="1">
          <mxGeometry x="140" y="-150" width="670" height="310" as="geometry" />
        </mxCell>
        <mxCell id="HDqoteHdZ3KNMryvcVHf-71" style="edgeStyle=orthogonalEdgeStyle;rounded=0;orthogonalLoop=1;jettySize=auto;html=1;" edge="1" parent="1" source="HDqoteHdZ3KNMryvcVHf-60" target="HDqoteHdZ3KNMryvcVHf-58">
          <mxGeometry relative="1" as="geometry" />
        </mxCell>
        <mxCell id="HDqoteHdZ3KNMryvcVHf-72" style="edgeStyle=orthogonalEdgeStyle;rounded=0;orthogonalLoop=1;jettySize=auto;html=1;entryX=0;entryY=0.5;entryDx=0;entryDy=0;" edge="1" parent="1" source="HDqoteHdZ3KNMryvcVHf-60" target="HDqoteHdZ3KNMryvcVHf-59">
          <mxGeometry relative="1" as="geometry" />
        </mxCell>
        <mxCell id="HDqoteHdZ3KNMryvcVHf-81" style="edgeStyle=orthogonalEdgeStyle;rounded=0;orthogonalLoop=1;jettySize=auto;html=1;entryX=0.75;entryY=0;entryDx=0;entryDy=0;" edge="1" parent="1" source="HDqoteHdZ3KNMryvcVHf-60" target="HDqoteHdZ3KNMryvcVHf-76">
          <mxGeometry relative="1" as="geometry" />
        </mxCell>
        <mxCell id="HDqoteHdZ3KNMryvcVHf-60" value="" style="image;html=1;image=img/lib/clip_art/networking/Router_Icon_128x128.png" vertex="1" parent="1">
          <mxGeometry x="370" y="-140" width="80" height="80" as="geometry" />
        </mxCell>
        <mxCell id="HDqoteHdZ3KNMryvcVHf-82" style="edgeStyle=orthogonalEdgeStyle;rounded=0;orthogonalLoop=1;jettySize=auto;html=1;entryX=0.75;entryY=0;entryDx=0;entryDy=0;" edge="1" parent="1" source="HDqoteHdZ3KNMryvcVHf-59" target="HDqoteHdZ3KNMryvcVHf-75">
          <mxGeometry relative="1" as="geometry" />
        </mxCell>
        <mxCell id="HDqoteHdZ3KNMryvcVHf-83" style="edgeStyle=orthogonalEdgeStyle;rounded=0;orthogonalLoop=1;jettySize=auto;html=1;" edge="1" parent="1" source="HDqoteHdZ3KNMryvcVHf-59" target="HDqoteHdZ3KNMryvcVHf-74">
          <mxGeometry relative="1" as="geometry" />
        </mxCell>
        <mxCell id="HDqoteHdZ3KNMryvcVHf-59" value="" style="image;html=1;image=img/lib/clip_art/networking/Router_Icon_128x128.png" vertex="1" parent="1">
          <mxGeometry x="510" y="-140" width="80" height="80" as="geometry" />
        </mxCell>
        <mxCell id="HDqoteHdZ3KNMryvcVHf-80" style="edgeStyle=orthogonalEdgeStyle;rounded=0;orthogonalLoop=1;jettySize=auto;html=1;" edge="1" parent="1" source="HDqoteHdZ3KNMryvcVHf-58" target="HDqoteHdZ3KNMryvcVHf-77">
          <mxGeometry relative="1" as="geometry" />
        </mxCell>
        <mxCell id="HDqoteHdZ3KNMryvcVHf-58" value="" style="image;html=1;image=img/lib/clip_art/networking/Router_Icon_128x128.png" vertex="1" parent="1">
          <mxGeometry x="230" y="-140" width="80" height="80" as="geometry" />
        </mxCell>
        <mxCell id="HDqoteHdZ3KNMryvcVHf-62" style="edgeStyle=orthogonalEdgeStyle;rounded=0;orthogonalLoop=1;jettySize=auto;html=1;" edge="1" parent="1" source="HDqoteHdZ3KNMryvcVHf-10" target="HDqoteHdZ3KNMryvcVHf-60">
          <mxGeometry relative="1" as="geometry">
            <Array as="points">
              <mxPoint x="120" y="-220" />
              <mxPoint x="410" y="-220" />
            </Array>
          </mxGeometry>
        </mxCell>
        <mxCell id="HDqoteHdZ3KNMryvcVHf-74" value="" style="aspect=fixed;perimeter=ellipsePerimeter;html=1;align=center;shadow=0;dashed=0;spacingTop=3;image;image=img/lib/active_directory/database_server.svg;" vertex="1" parent="1">
          <mxGeometry x="644.4" y="30" width="65.6" height="80" as="geometry" />
        </mxCell>
        <mxCell id="HDqoteHdZ3KNMryvcVHf-75" value="" style="aspect=fixed;perimeter=ellipsePerimeter;html=1;align=center;shadow=0;dashed=0;spacingTop=3;image;image=img/lib/active_directory/windows_server.svg;" vertex="1" parent="1">
          <mxGeometry x="470" y="30" width="65.6" height="80" as="geometry" />
        </mxCell>
        <mxCell id="HDqoteHdZ3KNMryvcVHf-76" value="" style="aspect=fixed;perimeter=ellipsePerimeter;html=1;align=center;shadow=0;dashed=0;spacingTop=3;image;image=img/lib/active_directory/windows_server_2.svg;" vertex="1" parent="1">
          <mxGeometry x="330" y="30" width="64" height="80" as="geometry" />
        </mxCell>
        <mxCell id="HDqoteHdZ3KNMryvcVHf-77" value="" style="aspect=fixed;perimeter=ellipsePerimeter;html=1;align=center;shadow=0;dashed=0;spacingTop=3;image;image=img/lib/active_directory/sql_server.svg;" vertex="1" parent="1">
          <mxGeometry x="200" y="40" width="53.9" height="70" as="geometry" />
        </mxCell>
      </root>
    </mxGraphModel>
  </diagram>
</mxfile>
